<svg width="44" height="44" viewBox="0 0 44 44" fill="none" xmlns="http://www.w3.org/2000/svg">
<g id="Group 19">
<path id="Shape_1_copy_3_25_" d="M22 44C34.1502 44 44 34.1502 44 22C44 9.84973 34.1502 0 22 0C9.84973 0 0 9.84973 0 22C0 34.1502 9.84973 44 22 44Z" fill="#E13138"/>
<path id="Pinterest_Icon" d="M22.5288 10.8665C16.3776 10.8665 13.2712 15.2119 13.2712 18.8361C13.2712 21.0352 14.116 22.9792 15.92 23.7093C16.2192 23.8325 16.4832 23.7181 16.5712 23.3926C16.6328 23.1727 16.9056 22.601 16.9672 22.3722C17.0552 22.0556 17.02 21.9412 16.7824 21.6597C16.2632 21.0528 15.9376 20.4194 15.9376 19.3111C15.9376 15.6166 18.2432 12.9864 22.168 12.9864C25.644 12.9864 27.5536 15.1415 27.5536 17.9388C27.5536 21.6157 25.8992 24.6066 23.444 24.6066C22.0888 24.6066 21.0768 23.6213 21.4024 22.2667C21.7896 20.6481 22.5464 18.9064 22.5464 17.7365C22.5464 16.6897 21.9832 15.942 20.804 15.942C19.4224 15.942 18.3048 17.2351 18.3048 19.1263C18.3048 20.3315 18.7008 20.9296 18.7008 20.9296C18.7008 20.9296 17.3016 27.0608 17.0464 28.0987C16.5536 30.1659 16.976 32.6905 17.0112 32.9456C17.0288 33.0951 17.2312 33.1303 17.3192 33.016C17.4424 32.8576 19.0968 30.8433 19.66 28.8377C19.8184 28.2747 20.5752 25.3367 20.5752 25.3367C21.024 26.1811 22.344 26.7265 23.7344 26.7265C27.8968 26.7265 30.7216 23.1815 30.7216 18.1851C30.7304 14.3938 27.4744 10.8665 22.5288 10.8665Z" fill="white"/>
</g>
</svg>
