<svg width="44" height="44" viewBox="0 0 44 44" fill="none" xmlns="http://www.w3.org/2000/svg">
<path d="M22 44C34.1503 44 44 34.1503 44 22C44 9.84974 34.1503 0 22 0C9.84974 0 0 9.84974 0 22C0 34.1503 9.84974 44 22 44Z" fill="#3C5A9A"/>
<path d="M29.1535 6.75281H24.28C21.3878 6.75281 18.171 7.96919 18.171 12.1614C18.1851 13.6222 18.171 15.0211 18.171 16.5956H14.8252V21.9197H18.2745V37.247H24.6128V21.8186H28.7964L29.1749 16.5806H24.5036C24.5036 16.5806 24.5141 14.2506 24.5036 13.5739C24.5036 11.9172 26.2275 12.0121 26.3312 12.0121C27.1515 12.0121 28.7465 12.0145 29.1559 12.0121V6.75281H29.1535Z" fill="white"/>
</svg>
