<svg width="44" height="44" viewBox="0 0 44 44" fill="none" xmlns="http://www.w3.org/2000/svg">
<path d="M22 44C34.1503 44 44 34.1503 44 22C44 9.84974 34.1503 0 22 0C9.84974 0 0 9.84974 0 22C0 34.1503 9.84974 44 22 44Z" fill="#1E6DFF"/>
<path d="M19.5938 21.6562C19.5938 21.6562 21.6562 20.8897 21.6562 18.2188C21.6562 15.5478 19.8894 14.4375 17.5312 14.4375H9.625V29.5625H17.5312C17.5312 29.5625 22 29.5625 22 25.0938C22 25.0938 22 21.6562 19.5938 21.6562ZM13.0625 17.1875H17.5312C17.5312 17.1875 18.5625 17.1875 18.5625 18.5625C18.5625 20.1163 17.875 20.2812 17.1875 20.2812H13.0625V17.1875ZM17.1875 26.8125H13.0625V23.0312L17.3903 23.0072C17.3903 23.0072 18.9062 23.0312 18.9062 25.0938C18.9062 26.8125 17.8097 26.7953 17.1875 26.8125ZM29.1397 18.1775C23.4025 18.1775 23.4059 23.9112 23.4059 23.9112C23.4059 23.9112 23.0897 29.5625 29.2188 29.5625C29.2188 29.5625 34.375 30.0403 34.375 25.7812H31.625C31.625 25.7812 31.7075 27.2525 29.2188 27.2525C29.2188 27.2525 26.4688 27.5241 26.4688 24.75H34.375C34.375 24.75 35.1794 18.1775 29.1397 18.1775ZM31.625 22.6875H26.4688C26.4688 22.6875 26.895 20.3638 29.1981 20.3638C31.5013 20.3638 31.625 22.6875 31.625 22.6875ZM25.7812 15.125H32.3125V17.1875H25.7812V15.125Z" fill="white"/>
</svg>
