<svg width="44" height="44" viewBox="0 0 44 44" fill="none" xmlns="http://www.w3.org/2000/svg">
<circle cx="22" cy="22" r="22" fill="white"/>
<path d="M15.0004 36.102C13.9017 36.0898 12.8134 35.8883 11.7831 35.5063C11.0308 35.2282 10.3501 34.7855 9.79085 34.2106C9.21433 33.6524 8.77097 32.9716 8.49369 32.2186C8.1121 31.1884 7.91088 30.1001 7.89885 29.0016C7.81447 27.1753 7.79749 26.6275 7.79749 22C7.79749 17.3725 7.81614 16.8267 7.89802 14.999C7.9115 13.9009 8.11297 12.8132 8.49369 11.7831C8.77232 11.0306 9.21505 10.3497 9.78974 9.78974C10.3483 9.21374 11.0293 8.77078 11.7823 8.49369C12.8125 8.11178 13.9009 7.91028 14.9996 7.89802C16.8264 7.81447 17.375 7.79749 22 7.79749C26.625 7.79749 27.1734 7.81614 29.001 7.89802C30.0994 7.91141 31.1874 8.11288 32.2178 8.49369C32.9704 8.77115 33.6512 9.21395 34.21 9.78946C34.7857 10.3484 35.2287 11.0294 35.5063 11.7823C35.8883 12.8125 36.0899 13.9009 36.1023 14.9996C36.1858 16.8272 36.2028 17.3744 36.2028 22.0006C36.2028 26.6267 36.1858 27.1739 36.1023 29.0016C36.089 30.1001 35.8875 31.1882 35.5063 32.2186C35.2181 32.9658 34.7765 33.6444 34.2101 34.2106C33.6437 34.7769 32.965 35.2183 32.2178 35.5063C31.1875 35.8883 30.0992 36.0899 29.0005 36.1023C27.1745 36.1858 26.6256 36.2028 21.9995 36.2028C17.3733 36.2028 16.8261 36.1867 15.0001 36.1023" fill="url(#paint0_radial_77_43)"/>
<path d="M15.0004 36.102C13.9017 36.0898 12.8134 35.8883 11.7831 35.5063C11.0308 35.2282 10.3501 34.7855 9.79085 34.2106C9.21433 33.6524 8.77097 32.9716 8.49369 32.2186C8.1121 31.1884 7.91088 30.1001 7.89885 29.0016C7.81447 27.1753 7.79749 26.6275 7.79749 22C7.79749 17.3725 7.81614 16.8267 7.89802 14.999C7.9115 13.9009 8.11297 12.8132 8.49369 11.7831C8.77232 11.0306 9.21505 10.3497 9.78974 9.78974C10.3483 9.21374 11.0293 8.77078 11.7823 8.49369C12.8125 8.11178 13.9009 7.91028 14.9996 7.89802C16.8264 7.81447 17.375 7.79749 22 7.79749C26.625 7.79749 27.1734 7.81614 29.001 7.89802C30.0994 7.91141 31.1874 8.11288 32.2178 8.49369C32.9704 8.77115 33.6512 9.21395 34.21 9.78946C34.7857 10.3484 35.2287 11.0294 35.5063 11.7823C35.8883 12.8125 36.0899 13.9009 36.1023 14.9996C36.1858 16.8272 36.2028 17.3744 36.2028 22.0006C36.2028 26.6267 36.1858 27.1739 36.1023 29.0016C36.089 30.1001 35.8875 31.1882 35.5063 32.2186C35.2181 32.9658 34.7765 33.6444 34.2101 34.2106C33.6437 34.7769 32.965 35.2183 32.2178 35.5063C31.1875 35.8883 30.0992 36.0899 29.0005 36.1023C27.1745 36.1858 26.6256 36.2028 21.9995 36.2028C17.3733 36.2028 16.8261 36.1867 15.0001 36.1023" fill="url(#paint1_radial_77_43)"/>
<path d="M18.5126 22.0605C18.5127 21.3648 18.719 20.6847 19.1056 20.1063C19.4921 19.5278 20.0415 19.077 20.6843 18.8109C21.3271 18.5447 22.0344 18.4751 22.7167 18.6109C23.399 18.7467 24.0257 19.0818 24.5176 19.5738C25.0095 20.0658 25.3444 20.6926 25.4801 21.375C25.6157 22.0573 25.546 22.7646 25.2796 23.4073C25.0133 24.05 24.5624 24.5993 23.9839 24.9857C23.4053 25.3722 22.7252 25.5784 22.0295 25.5782C21.0967 25.5781 20.2021 25.2074 19.5425 24.5477C18.883 23.888 18.5125 22.9933 18.5126 22.0605ZM16.6108 22.0605C16.6108 23.1322 16.9286 24.1798 17.5241 25.0709C18.1195 25.962 18.9658 26.6566 19.9559 27.0667C20.946 27.4768 22.0355 27.5841 23.0867 27.375C24.1378 27.166 25.1033 26.6499 25.8611 25.8921C26.6189 25.1342 27.135 24.1687 27.3441 23.1176C27.5532 22.0665 27.4459 20.977 27.0357 19.9868C26.6256 18.9967 25.9311 18.1504 25.04 17.555C24.1489 16.9596 23.1012 16.6418 22.0295 16.6418C21.3179 16.6417 20.6133 16.7819 19.9558 17.0542C19.2984 17.3265 18.701 17.7256 18.1979 18.2288C17.6947 18.732 17.2956 19.3293 17.0232 19.9868C16.7509 20.6442 16.6108 21.3489 16.6108 22.0605ZM26.3964 16.4271C26.3963 16.6775 26.4704 16.9224 26.6095 17.1307C26.7485 17.339 26.9462 17.5013 27.1776 17.5973C27.4089 17.6932 27.6635 17.7184 27.9091 17.6697C28.1548 17.6209 28.3805 17.5004 28.5576 17.3234C28.7348 17.1464 28.8555 16.9208 28.9045 16.6752C28.9534 16.4296 28.9285 16.175 28.8327 15.9436C28.737 15.7122 28.5748 15.5143 28.3666 15.3751C28.1584 15.2359 27.9136 15.1615 27.6632 15.1614C27.3275 15.1615 27.0056 15.2949 26.7682 15.5322C26.5308 15.7695 26.3972 16.0914 26.3969 16.4271M17.7668 30.6502C17.0977 30.6429 16.4348 30.5204 15.8071 30.2882C15.352 30.1128 14.9386 29.844 14.5936 29.4991C14.2486 29.1543 13.9797 28.741 13.804 28.2859C13.5717 27.6583 13.4493 26.9954 13.442 26.3262C13.3908 25.214 13.3807 24.8798 13.3807 22.0619C13.3807 19.2439 13.3919 18.9106 13.442 17.7972C13.4501 17.1281 13.5726 16.4653 13.804 15.8375C13.9795 15.3822 14.2483 14.9688 14.5934 14.6237C14.9384 14.2787 15.3518 14.0098 15.8071 13.8344C16.4347 13.6021 17.0977 13.4796 17.7668 13.4724C18.8791 13.4212 19.2133 13.4111 22.0301 13.4111C24.8469 13.4111 25.1814 13.422 26.2947 13.4727C26.9638 13.4808 27.6266 13.6032 28.2544 13.8347C28.7097 14.0101 29.1232 14.279 29.4682 14.624C29.8132 14.969 30.0821 15.3825 30.2575 15.8378C30.4898 16.4654 30.6123 17.1283 30.6196 17.7975C30.6708 18.9114 30.6808 19.2439 30.6808 22.0621C30.6808 24.8804 30.6705 25.2134 30.6196 26.3268C30.6118 26.9959 30.4893 27.6587 30.2575 28.2865C30.0819 28.7415 29.8129 29.1548 29.4679 29.4997C29.123 29.8445 28.7096 30.1133 28.2544 30.2887C27.6268 30.5211 26.9639 30.6435 26.2947 30.6508C25.1825 30.702 24.8483 30.712 22.0301 30.712C19.2119 30.712 18.8788 30.7017 17.7668 30.6508M17.6794 11.5723C16.8038 11.5895 15.9375 11.7553 15.1174 12.0624C14.4163 12.3335 13.7796 12.7481 13.2481 13.2796C12.7166 13.8111 12.302 14.4478 12.0309 15.1488C11.7238 15.969 11.5581 16.8353 11.5408 17.7109C11.4887 18.8359 11.4771 19.1957 11.4771 22.0616C11.4771 24.9274 11.489 25.287 11.5408 26.4123C11.5581 27.2879 11.7238 28.1542 12.0309 28.9743C12.302 29.6754 12.7166 30.3121 13.2481 30.8436C13.7796 31.3751 14.4163 31.7896 15.1174 32.0607C15.9375 32.3678 16.8038 32.5335 17.6794 32.5509C18.805 32.6021 19.1642 32.6146 22.0301 32.6146C24.8959 32.6146 25.2555 32.6026 26.3808 32.5509C27.2564 32.5336 28.1227 32.3678 28.9428 32.0607C29.6439 31.7896 30.2806 31.3751 30.8121 30.8436C31.3436 30.3121 31.7581 29.6754 32.0292 28.9743C32.3368 28.1543 32.5025 27.2879 32.5194 26.4123C32.5706 25.2864 32.5823 24.9274 32.5823 22.0616C32.5823 19.1957 32.5703 18.8362 32.5194 17.7109C32.5021 16.8353 32.3364 15.969 32.0292 15.1488C31.7582 14.4479 31.3437 13.8113 30.8124 13.2798C30.281 12.7483 29.6445 12.3337 28.9437 12.0624C28.1236 11.7551 27.2572 11.5893 26.3816 11.5723C25.2563 11.5208 24.8968 11.5085 22.0315 11.5085C19.1662 11.5085 18.8058 11.5205 17.6799 11.5723" fill="white"/>
<defs>
<radialGradient id="paint0_radial_77_43" cx="0" cy="0" r="1" gradientUnits="userSpaceOnUse" gradientTransform="translate(9.63574 35.5804) scale(36.0638)">
<stop offset="0.09" stop-color="#FA8F21"/>
<stop offset="0.78" stop-color="#D82D7E"/>
</radialGradient>
<radialGradient id="paint1_radial_77_43" cx="0" cy="0" r="1" gradientUnits="userSpaceOnUse" gradientTransform="translate(27.4727 34.6681) scale(31.7365)">
<stop offset="0.64" stop-color="#8C3AAA" stop-opacity="0"/>
<stop offset="1" stop-color="#8C3AAA"/>
</radialGradient>
</defs>
</svg>
